<svg id="svg" xmlns="http://www.w3.org/2000/svg" xmlns:xlink="http://www.w3.org/1999/xlink" width="400" height="355.55555555555554" viewBox="0, 0, 400,355.55555555555554"><g id="svgg"><path id="path0" d="M126.047 17.811 C 121.205 20.011,119.816 26.152,123.291 30.002 C 125.743 32.720,126.226 32.814,137.681 32.814 L 147.871 32.814 147.871 43.133 C 147.871 55.417,148.087 56.206,151.999 58.250 L 154.197 59.398 248.570 59.398 C 352.939 59.398,345.637 59.203,348.582 62.063 C 350.381 63.810,351.723 66.489,352.071 69.025 C 352.442 71.735,314.957 184.505,312.337 188.558 C 308.320 194.774,302.537 199.098,295.186 201.384 C 293.263 201.983,285.308 202.074,217.861 202.274 C 133.608 202.524,141.587 202.209,135.211 205.541 C 116.718 215.208,117.091 242.880,135.840 252.060 C 142.320 255.233,138.333 255.036,196.085 255.036 C 229.128 255.036,248.660 255.188,250.069 255.455 C 257.860 256.933,263.232 262.988,264.151 271.330 C 264.837 277.556,267.129 280.093,272.066 280.093 C 285.354 280.093,280.926 255.307,265.848 245.283 C 256.336 238.959,259.766 239.264,198.043 239.258 C 147.286 239.252,146.196 239.236,144.023 238.423 C 135.333 235.171,135.140 222.858,143.718 218.940 C 145.027 218.342,152.598 218.256,219.938 218.069 L 294.704 217.861 298.858 216.697 C 311.948 213.028,322.270 204.536,328.240 192.523 C 330.432 188.114,367.179 76.761,367.662 73.066 C 369.020 62.681,362.800 50.997,353.479 46.423 C 347.342 43.412,354.923 43.627,254.309 43.620 L 163.655 43.614 163.655 33.421 C 163.655 21.066,163.182 19.598,158.575 17.673 C 156.067 16.625,128.399 16.743,126.047 17.811 M67.896 97.146 C 61.931 99.856,61.624 108.476,67.393 111.268 C 69.486 112.281,124.382 112.686,126.972 111.708 C 133.603 109.202,133.256 98.701,126.480 96.829 C 123.248 95.936,69.924 96.225,67.896 97.146 M39.140 149.740 C 35.117 151.488,33.071 156.329,34.703 160.236 C 37.140 166.068,44.135 166.906,48.140 161.846 C 52.929 155.797,46.159 146.690,39.140 149.740 M80.386 150.480 C 74.990 153.537,75.193 161.361,80.747 164.403 C 82.730 165.490,165.245 165.490,167.228 164.403 C 172.782 161.361,172.985 153.537,167.589 150.480 L 165.940 149.546 123.988 149.546 L 82.035 149.546 80.386 150.480 M141.315 271.838 C 134.772 273.422,127.184 279.474,124.333 285.382 C 111.245 312.507,145.319 337.213,166.419 315.896 C 185.070 297.052,167.141 265.584,141.315 271.838 M238.158 276.672 C 236.442 277.170,232.345 281.585,230.663 284.749 C 218.512 307.607,242.541 332.310,265.772 320.843 C 279.632 314.002,285.585 293.498,274.750 289.922 C 269.649 288.239,265.077 291.808,264.414 297.992 C 263.776 303.948,259.611 307.788,253.790 307.788 C 244.581 307.788,240.082 297.169,246.294 290.094 C 251.711 283.924,245.947 274.415,238.158 276.672 M152.025 287.884 C 162.369 292.567,159.080 307.788,147.724 307.788 C 138.390 307.788,133.757 296.475,140.463 290.055 C 143.565 287.085,148.297 286.197,152.025 287.884 " stroke="#00334e" fill="#ffffff" stroke-width="" fill-rule="evenodd"></path></g></svg>